<svg xmlns="http://www.w3.org/2000/svg" width="1600" height="960" viewBox="0 0 1600 960" role="img" aria-labelledby="title desc">
  <title id="title">AS6 AI-ОС выручки — русская версия интерфейса</title>
  <desc id="desc">Неоновый дашборд CRM и AI Revenue Brain на русском языке, вдохновлённый предоставленным скриншотом.</desc>
  <defs>
    <linearGradient id="bg" x1="0" y1="0" x2="1" y2="1"><stop stop-color="#020615"/><stop offset=".55" stop-color="#05091b"/><stop offset="1" stop-color="#02030a"/></linearGradient>
    <linearGradient id="panel" x1="0" y1="0" x2="1" y2="1"><stop stop-color="#07152d" stop-opacity=".92"/><stop offset="1" stop-color="#06091a" stop-opacity=".95"/></linearGradient>
    <linearGradient id="purple" x1="0" y1="0" x2="1" y2="0"><stop stop-color="#7b16ff"/><stop offset="1" stop-color="#3510a6"/></linearGradient>
    <linearGradient id="cyan" x1="0" y1="0" x2="1" y2="0"><stop stop-color="#00f0ff"/><stop offset="1" stop-color="#008cff"/></linearGradient>
    <filter id="glow"><feGaussianBlur stdDeviation="5" result="b"/><feMerge><feMergeNode in="b"/><feMergeNode in="SourceGraphic"/></feMerge></filter>
    <style>
      .bg{fill:url(#bg)} .sidebar,.panel,.card{fill:url(#panel);stroke:#0b56a0;stroke-width:1.2}.panel{rx:10}.soft{fill:#b9c5da}.white{fill:#fff}.cyan{fill:#00eaff}.green{fill:#16ff58}.orange{fill:#ff9d00}.magenta{fill:#f034ff}.muted{fill:#7f8da8}.tiny{font:12px Inter,Arial,sans-serif}.small{font:14px Inter,Arial,sans-serif}.body{font:16px Inter,Arial,sans-serif}.label{font:700 13px Inter,Arial,sans-serif;letter-spacing:.04em}.h1{font:800 34px Inter,Arial,sans-serif}.h2{font:800 18px Inter,Arial,sans-serif}.num{font:800 25px Inter,Arial,sans-serif}.logo{font:900 66px Inter,Arial,sans-serif;font-style:italic}.btn{fill:#080d23;stroke:#15579b}.stage{fill:#071225;stroke-width:1.3}.spark{fill:none;stroke-width:2;filter:url(#glow)}
    </style>
  </defs>
  <rect class="bg" width="1600" height="960"/>
  <rect x="10" y="10" width="225" height="940" rx="9" class="sidebar"/>
  <text x="54" y="92" class="logo" fill="#a72cff" filter="url(#glow)">AS6</text>
  <text x="77" y="112" class="small cyan" letter-spacing="5">AI PLATFORM</text>
  <g class="small soft">
    <text x="28" y="150">⌂  Командный центр</text><text x="28" y="184">▦  Дашборд</text>
    <rect x="15" y="200" width="213" height="34" rx="7" fill="url(#purple)"/><text x="28" y="223" class="white" font-weight="700">▽  CRM-воронка</text>
    <text x="28" y="258">♙  AI сотрудники</text><text x="28" y="292">✐  AI SDR центр согласований</text><text x="28" y="326">✎  AI Execution Center</text><text x="28" y="360">▣  AI Workforce Center</text><text x="28" y="394">♙  AI Executive Brain</text><text x="28" y="428">◎  AI Enterprise Command Center</text><text x="192" y="432" class="white" font-weight="700">NEW</text><text x="28" y="462">⌘  AI Revenue Intelligence</text><text x="28" y="496">◉  Revenue Dashboard</text><text x="28" y="530">☷  AI Pipeline Copilot</text><text x="28" y="564">✉  AI Follow-ups</text><text x="28" y="598">♧  AI Priority Inbox</text><text x="28" y="632">♙  AI Manager Dashboard</text><text x="28" y="666">⊗  AI Live Realtime</text>
  </g>
  <rect x="20" y="690" width="208" height="70" rx="9" fill="#071225" stroke="#0b56a0"/><circle cx="49" cy="726" r="20" fill="#ffc199"/><text x="82" y="715" class="small white">Владелец AS6</text><text x="82" y="739" class="body white" font-weight="700">Владимир</text><text x="82" y="755" class="small green">• Онлайн</text>
  <rect x="20" y="770" width="208" height="58" rx="9" fill="#071225" stroke="#0b56a0"/><text x="82" y="800" class="small white">Нужна помощь?</text><text x="82" y="818" class="small soft">Открыть поддержку</text><text x="36" y="812" font-size="34" fill="#a855ff">✦</text>
  <rect x="20" y="838" width="208" height="102" rx="9" fill="#071225" stroke="#0b56a0"/><text x="28" y="860" class="small soft">AI-кредиты</text><text x="28" y="895" font-size="31" font-weight="800" fill="#00d9ff">865</text><text x="28" y="922" class="small soft">Живой баланс профиля</text><text x="168" y="900" font-size="39" fill="#078cff">▰</text>
  <main>
    <text x="260" y="24" class="label cyan">ЗАЩИЩЁННОЕ РАБОЧЕЕ ПРОСТРАНСТВО</text><text x="260" y="65" class="h1 white">AI-ОС ВЫРУЧКИ</text><rect x="544" y="37" width="60" height="32" rx="8" fill="url(#purple)" stroke="#8d6dff"/><text x="562" y="58" class="body white" font-weight="800">PRO</text><text x="260" y="100" class="body soft">Текущее пространство: </text><text x="447" y="100" class="body cyan" font-weight="800">buylesson workspace</text>
    <text x="933" y="26" class="small soft">Пространство</text><rect x="930" y="35" width="215" height="42" rx="9" class="btn"/><text x="945" y="62" class="small white" font-weight="700">buylesson workspace⌄</text><rect x="1162" y="35" width="153" height="42" rx="9" class="btn"/><text x="1185" y="62" class="small white" font-weight="700">Команда и тариф</text><rect x="1332" y="24" width="255" height="62" rx="11" class="btn"/><text x="1396" y="49" class="small white" font-weight="800">buylesson@gmail.com</text><text x="1396" y="70" class="small soft">starter · Владелец</text><circle cx="1364" cy="54" r="20" fill="#ffc199"/>
    <g transform="translate(260 124)">
      <g><rect width="278" height="116" rx="9" class="card"/><text x="16" y="28" class="small soft">Выручка сегодня</text><text x="16" y="62" class="num white">1 248 890 ₽</text><text x="16" y="90" class="small green" font-weight="800">↑ 18.6%</text><path d="M95 95 L110 95 L116 93 L121 95 L128 91 L135 95 L142 89 L148 92 L156 84 L164 88 L173 77 L181 86 L190 72 L198 81 L207 68 L216 73 L225 58 L234 65 L243 51 L252 55 L263 41" class="spark" stroke="#00eaff"/></g>
      <g transform="translate(295 0)"><rect width="250" height="116" rx="9" class="card"/><text x="16" y="28" class="small soft">Новые лиды</text><text x="16" y="62" class="num white">247</text><text x="16" y="90" class="small green" font-weight="800">↑ 32%</text><path d="M75 96 L90 96 L98 94 L104 96 L112 92 L121 96 L130 89 L137 91 L146 82 L155 86 L164 75 L173 78 L183 69 L192 74 L201 61 L211 67 L221 53 L231 58 L242 46" class="spark" stroke="#f034ff"/></g>
      <g transform="translate(562 0)"><rect width="235" height="116" rx="9" class="card"/><text x="16" y="28" class="small soft">Сделки в работе</text><text x="16" y="62" class="num white">87</text><text x="16" y="90" class="small orange" font-weight="800">↑ 14%</text><path d="M56 96 L70 96 L78 94 L85 96 L94 92 L102 95 L110 88 L119 92 L128 81 L137 87 L146 77 L156 81 L165 70 L174 76 L183 62 L193 68 L203 55 L213 62 L224 48" class="spark" stroke="#ff9500"/></g>
      <g transform="translate(815 0)"><rect width="233" height="116" rx="9" class="card"/><text x="16" y="28" class="small soft">AI сотрудники</text><text x="16" y="62" class="num white">28 / 28</text><text x="16" y="90" class="small green" font-weight="800">Активны</text><path d="M75 96 L90 96 L99 95 L106 96 L115 92 L124 95 L133 88 L142 93 L151 82 L160 87 L169 74 L178 80 L187 65 L196 70 L205 56 L214 62 L225 50" class="spark" stroke="#00ff42"/></g>
    </g>
    <rect x="260" y="254" width="1048" height="94" rx="10" class="panel"/><text x="276" y="277" class="label" fill="#6c90ff">AI ACTION CENTER</text><g class="small white" font-weight="800"><rect x="270" y="292" width="148" height="46" rx="6" class="btn"/><text x="321" y="321">Создать лид</text><rect x="433" y="292" width="154" height="46" rx="6" class="btn"/><text x="482" y="321">Создать сделку</text><rect x="601" y="292" width="158" height="46" rx="6" class="btn"/><text x="648" y="321">Добавить задачу</text><rect x="773" y="292" width="144" height="46" rx="6" class="btn"/><text x="821" y="321">Очередь Approval</text><rect x="930" y="292" width="130" height="46" rx="6" class="btn"/><text x="978" y="321">AI аналитика</text><rect x="1074" y="292" width="94" height="46" rx="6" class="btn"/><text x="1120" y="321">Отчёты</text><rect x="1180" y="292" width="116" height="46" rx="6" class="btn"/><text x="1224" y="321">Настроить AI</text></g>
    <rect x="260" y="360" width="1048" height="228" rx="10" class="panel"/><text x="330" y="388" class="label cyan">AI</text><text x="370" y="386" class="label cyan">REVENUE BRAIN</text><circle cx="313" cy="414" r="42" fill="#06162b" stroke="#0cecff"/><text x="292" y="431" font-size="42">🧠</text>
    <g class="body soft"><g transform="translate(365 398)"><rect width="156" height="94" rx="7" class="card"/><text x="12" y="24">Прогноз (7 дней)</text><text x="12" y="58" class="num white">1 201 390 ₽</text><text x="12" y="82" class="small green">↑ 18%</text></g><g transform="translate(533 398)"><rect width="123" height="94" rx="7" class="card"/><text x="12" y="24">Горячие лиды</text><text x="12" y="58" class="num white">18</text><text x="12" y="82" class="small green">↑ 12%</text></g><g transform="translate(668 398)"><rect width="116" height="94" rx="7" class="card"/><text x="12" y="24">Риск-сделки</text><text x="12" y="58" class="num white">8</text><text x="12" y="82" class="small green">↑ 7%</text></g><g transform="translate(796 398)"><rect width="116" height="94" rx="7" class="card"/><text x="12" y="24">AI-оценка</text><text x="12" y="58" class="num white">76</text><text x="12" y="82" class="small green">↑ 6%</text></g><g transform="translate(924 398)"><rect width="126" height="94" rx="7" class="card"/><text x="12" y="24">Здоровье</text><text x="12" y="58" class="num white">92%</text><text x="12" y="82" class="small green">↑ 10%</text></g><g transform="translate(1062 398)"><rect width="91" height="94" rx="7" class="card"/><text x="12" y="24">At-risk</text><text x="12" y="58" class="num white">3</text><text x="12" y="82" class="small green">↑ 2%</text></g><g transform="translate(1165 398)"><rect width="118" height="94" rx="7" class="card"/><text x="12" y="24">Рекомендации</text><text x="12" y="58" class="num white">6</text><text x="12" y="82" class="small white">новых</text></g></g>
    <rect x="282" y="506" width="1006" height="70" rx="8" fill="#071225" stroke="#0b56a0"/><text x="352" y="528" class="body white" font-weight="800">AI Рекомендация</text><text x="352" y="552" class="small soft">У вас 8 горячих лидов, требующих ответа.</text><text x="352" y="572" class="small soft">Рекомендуем отправить персональное предложение в течение 24 часов.</text><rect x="1065" y="528" width="207" height="43" rx="7" fill="url(#cyan)"/><text x="1086" y="555" class="body white" font-weight="800">Открыть Revenue Brain</text>
    <rect x="260" y="600" width="1048" height="344" rx="10" class="panel"/><text x="278" y="624" class="label" fill="#5da3ff">CRM PIPELINE</text>
    <g transform="translate(272 626)">
      <g><rect width="185" height="318" rx="9" fill="#061225" stroke="#00eaff"/><text x="12" y="25" class="body white" font-weight="800">Новый</text><text x="12" y="45" class="tiny soft">12 · 90 000 ₽</text><text x="148" y="30" class="num cyan">12</text><rect x="10" y="60" width="165" height="112" rx="6" class="card"/><text x="20" y="82" class="small white" font-weight="800">Игорь Павлов</text><text x="128" y="82" class="small green" font-weight="800">90 000 ₽</text><text x="20" y="108" class="tiny soft">AI 100/100  medium</text><text x="20" y="135" class="tiny cyan">AI Priority 25/100      Close 23%</text><text x="20" y="164" class="tiny soft">◷ 17:05  ✈</text><rect x="10" y="176" width="165" height="112" rx="6" class="card"/><text x="20" y="199" class="small white" font-weight="800">Мария Кузнецова</text><text x="132" y="199" class="small green" font-weight="800">45 000 ₽</text><text x="20" y="225" class="tiny soft">AI 81/100   high</text><text x="20" y="252" class="tiny cyan">AI Priority 61/100     Close 100%</text><text x="52" y="306" class="small soft">＋ Добавить лид</text></g>
      <g transform="translate(205 0)"><rect width="198" height="318" rx="9" fill="#0b0a25" stroke="#bb32ff"/><text x="12" y="25" class="body white" font-weight="800">Квалификация</text><text x="12" y="45" class="tiny soft">1 · 0 ₽</text><text x="162" y="30" class="num magenta">1</text><rect x="10" y="60" width="178" height="112" rx="6" class="card"/><text x="20" y="82" class="small white" font-weight="800">Stage Recommendation Test</text><text x="156" y="82" class="small white" font-weight="800">0 ₽</text><text x="20" y="108" class="tiny soft">AI 59/100    low</text><text x="20" y="135" class="tiny cyan">AI Priority 24/100      Close 28%</text><text x="52" y="306" class="small soft">＋ Добавить лид</text></g>
      <g transform="translate(415 0)"><rect width="204" height="318" rx="9" fill="#13101c" stroke="#ff9500"/><text x="12" y="25" class="body white" font-weight="800">Предложение</text><text x="12" y="45" class="tiny soft">2 · 830 000 ₽</text><text x="170" y="30" class="num orange">2</text><rect x="10" y="60" width="184" height="112" rx="6" class="card"/><text x="20" y="82" class="small white" font-weight="800">Алексей Морозов</text><text x="128" y="82" class="small green" font-weight="800">480 000 ₽</text><text x="20" y="108" class="tiny soft">AI 81/100   medium</text><text x="20" y="135" class="tiny cyan">AI Priority 34/100      Close 43%</text><rect x="10" y="176" width="184" height="112" rx="6" class="card"/><text x="20" y="199" class="small white" font-weight="800">Елена Смирнова</text><text x="130" y="199" class="small green" font-weight="800">350 000 ₽</text><text x="52" y="306" class="small soft">＋ Добавить лид</text></g>
      <g transform="translate(633 0)"><rect width="206" height="318" rx="9" fill="#061225" stroke="#008cff"/><text x="12" y="25" class="body white" font-weight="800">Встреча</text><text x="12" y="45" class="tiny soft">1 · 990 ₽</text><text x="172" y="30" class="num cyan">1</text><rect x="10" y="60" width="186" height="122" rx="6" class="card"/><text x="20" y="82" class="small white" font-weight="800">Telegram Connect Test</text><text x="144" y="82" class="small cyan" font-weight="800">990 ₽</text><text x="20" y="108" class="tiny soft">AI 100/100   high</text><text x="20" y="135" class="tiny cyan">AI Priority 61/100      Close 71%</text><text x="52" y="306" class="small soft">＋ Добавить лид</text></g>
      <g transform="translate(853 0)"><rect width="198" height="318" rx="9" fill="#061c18" stroke="#16ff58"/><text x="12" y="25" class="body white" font-weight="800">Успешно</text><text x="12" y="45" class="tiny soft">4 · 2 980 ₽</text><text x="162" y="30" class="num green">4</text><rect x="10" y="60" width="178" height="112" rx="6" class="card"/><text x="20" y="82" class="small white" font-weight="800">Мария Кузнецова</text><text x="152" y="82" class="small green" font-weight="800">990 ₽</text><text x="20" y="108" class="tiny soft">AI 100/100   high</text><text x="20" y="135" class="tiny cyan">AI Priority 61/100      Close 100%</text><rect x="10" y="176" width="178" height="112" rx="6" class="card"/><text x="20" y="199" class="small white" font-weight="800">Дмитрий Волков</text><text x="152" y="199" class="small green" font-weight="800">990 ₽</text><text x="52" y="306" class="small soft">＋ Добавить лид</text></g>
    </g>
  </main>
  <aside>
    <g transform="translate(1330 98)"><rect width="48" height="45" rx="8" class="btn"/><text x="15" y="31" font-size="24" fill="#dce7ff">⌕</text><rect x="54" width="48" height="45" rx="8" class="btn"/><text x="68" y="31" font-size="24" fill="#dce7ff">♧</text><rect x="108" width="48" height="45" rx="8" class="btn"/><text x="122" y="31" font-size="24" fill="#dce7ff">▣</text><rect x="162" width="48" height="45" rx="8" class="btn"/><text x="176" y="31" font-size="24" fill="#dce7ff">?</text><rect x="216" width="48" height="45" rx="8" class="btn"/><text x="225" y="31" font-size="24" fill="#c23cff">◉</text></g>
    <rect x="1320" y="160" width="267" height="202" rx="10" class="panel"/><text x="1336" y="190" class="label" fill="#6c90ff">AI ПОМОЩНИК AS6</text><text x="1336" y="235" class="h2 white">Спросить AS6</text><text x="1336" y="262" class="body soft">Аналитика, рекомендации,</text><text x="1336" y="286" class="body soft">ответы.</text><text x="1513" y="242" font-size="68" fill="#8b2fff" filter="url(#glow)">◉</text><rect x="1336" y="305" width="237" height="42" rx="6" fill="url(#purple)"/><text x="1402" y="333" class="body white" font-weight="800">Спросить AS6</text>
    <rect x="1320" y="376" width="267" height="178" rx="10" class="panel"/><text x="1336" y="406" class="label cyan">РЕКОМЕНДАЦИЯ AS6</text><rect x="1545" y="389" width="28" height="26" rx="6" fill="#107d46"/><text x="1552" y="408" class="small white" font-weight="800">P1</text><text x="1336" y="442" class="body soft">Сфокусируйтесь на 8 горячих</text><text x="1336" y="466" class="body soft">лидах — вероятность сделки</text><text x="1336" y="490" class="body soft">выше на 38%.</text><rect x="1336" y="502" width="237" height="40" rx="6" class="btn"/><text x="1395" y="530" class="body white" font-weight="800">Проверить лиды</text>
    <rect x="1320" y="570" width="267" height="292" rx="10" class="panel"/><text x="1336" y="600" class="label cyan">ПОСЛЕДНИЕ СОБЫТИЯ</text><rect x="1525" y="582" width="48" height="30" rx="7" class="btn"/><text x="1542" y="602" class="small white">Все</text><g class="tiny soft"><text x="1338" y="642">✉  AI SDR Agent отправил письмо лиду</text><text x="1520" y="642">2 мин назад</text><line x1="1336" y1="660" x2="1575" y2="660" stroke="#11365c"/><text x="1338" y="690">●  Сделка Acme Corp перемещена</text><text x="1520" y="690">7 мин назад</text><text x="1358" y="708">в переговоры</text><line x1="1336" y1="728" x2="1575" y2="728" stroke="#11365c"/><text x="1338" y="760">♙  Новый лид из LinkedIn: Tech Solutions</text><text x="1520" y="760">12 мин назад</text><line x1="1336" y1="778" x2="1575" y2="778" stroke="#11365c"/><text x="1338" y="810">▣  Сделка на $250,000 закрыта успешно</text><text x="1520" y="810">25 мин назад</text><line x1="1336" y1="828" x2="1575" y2="828" stroke="#11365c"/><text x="1338" y="844">▣  AI Follow-up запланирован</text><text x="1520" y="844">32 мин назад</text></g>
  </aside>
</svg>
